<svg id="Camada_1" data-name="Camada 1" xmlns="http://www.w3.org/2000/svg" width="163.1" height="38.14" viewBox="0 0 163.1 38.14"><defs><style>.cls-1{fill:#fff;}.cls-2{fill:#f4e953;}</style></defs><polygon class="cls-1" points="145.98 32.92 149.57 38.13 163.1 38.13 152.67 23.63 145.98 32.92"/><polygon class="cls-1" points="163.1 0 149.57 0 145.98 5.22 152.64 14.54 163.1 0"/><polygon class="cls-2" points="135.61 0 122.14 0 135.7 19.07 122.14 38.13 135.61 38.13 149.25 19.07 135.61 0"/><rect class="cls-1" x="104.86" width="11.07" height="38.14"/><polygon class="cls-1" points="54.63 0 54.63 38.04 65.7 38.04 65.7 19.79 76.96 26.37 88.21 19.79 88.21 38.04 99.28 38.04 99.28 0 76.95 13.06 54.63 0"/><circle class="cls-1" cx="44.92" cy="19.31" r="3.86" transform="translate(18.81 60.36) rotate(-80.78)"/><path class="cls-1" d="M30.35,5.38A17.13,17.13,0,0,0,17.6.28,17.1,17.1,0,0,0,4.86,5.38q-5,5.1-5,13.88h0q0,8.65,5,13.82t13.34,5.16q8.82,0,13.92-6h0l-7.9-5.44a7.91,7.91,0,0,1-6,2.53,8.23,8.23,0,0,1-5.9-1.92,6.18,6.18,0,0,1-2.12-3.56v-.44H35a33.54,33.54,0,0,0,.4-4.15h0Q35.36,10.49,30.35,5.38Zm-4.77,10.2H10.14v-.06a5.73,5.73,0,0,1,2-4.41,8,8,0,0,1,5.61-1.93,8.44,8.44,0,0,1,5.72,1.93,5.41,5.41,0,0,1,2.11,4.47Z" transform="translate(0.16 -0.2)"/></svg>